<svg xmlns="http://www.w3.org/2000/svg" data-name="Layer 1" width="595.5399780273438" height="154.63999938964844" style=""><rect id="backgroundrect" width="100%" height="100%" x="0" y="0" fill="none" stroke="none"/><title>oe l</title><g class="currentLayer" style=""><title>Layer 1</title><path d="M476,62.57a17.35,17.35,0,0,1,9.19,5.1,11.7,11.7,0,0,1,3.19,8q.09,9,0,17.93c-.07,7.4-4.58,12.52-12.49,14.11a34.73,34.73,0,0,1-6.67.63c-21.12,0-42.24,0-63.35.06-1.43,0-1.86-.36-1.85-1.82q.06-40.71,0-81.43c0-1.43.38-1.84,1.83-1.84,20.42.05,40.84,0,61.26.05a26,26,0,0,1,10.64,1.94c5.17,2.28,8.25,6.15,8.47,11.79A140.35,140.35,0,0,1,486,53.49c-.41,5.36-2.55,7.73-8.93,8.84C476.71,62.39,476.35,62.49,476,62.57ZM442.45,98.1c7.82,0,15.64.06,23.45,0a23,23,0,0,0,6.28-1,5.54,5.54,0,0,0,4.16-5.44c.13-5,.21-10,.07-14.93-.11-3.85-2-5.84-5.78-6.72a16.37,16.37,0,0,0-3.68-.49c-16.63,0-33.26,0-49.89,0-1.28,0-1.59.46-1.59,1.65,0,8.42.06,16.83,0,25.25,0,1.5.52,1.8,1.9,1.79C425.72,98.07,434.09,98.1,442.45,98.1Zm-.78-38.77V59.2c8.16,0,16.33.09,24.49,0,5.27-.08,8.28-3,8.33-7.6,0-3.33.05-6.67,0-10-.07-3.69-1.84-6.12-5.37-7.17a17.64,17.64,0,0,0-4.84-.75c-15.68,0-31.36,0-47-.06-1.41,0-1.77.46-1.76,1.8,0,7.32,0,14.64,0,21.95,0,2,0,2,2,2Z" fill="#ffffff" id="svg_1" class="" fill-opacity="1"/><path d="M329.63,69.73v1.8c0,5.24,0,10.47,0,15.7,0,6.58,4.17,10.73,10.76,10.73q28.17,0,56.35,0c3,0,2.61-.33,2.63,2.63,0,2-.08,4.09,0,6.12.08,1.37-.44,1.67-1.71,1.66-6.18-.06-12.36,0-18.54,0-13.75,0-27.5-.23-41.25.08-9.84.22-18.54-7.29-19.59-16.5a24.06,24.06,0,0,1-.14-2.68q0-23.33,0-46.64a18.9,18.9,0,0,1,19.29-19.28c20,0,40.06,0,60.09,0,1.4,0,1.94.32,1.87,1.81-.12,2.49-.06,5,0,7.47,0,.89-.29,1.31-1.2,1.25-.45,0-.9,0-1.35,0H340.19c-5.45,0-9.21,2.92-10.36,8.05a12.5,12.5,0,0,0-.19,2.67c0,4.28.05,8.57,0,12.85,0,1.47.44,1.82,1.85,1.82q27.14-.07,54.26,0c2,0,2,0,2,1.93,0,2.3-.08,4.59,0,6.88.07,1.37-.35,1.76-1.74,1.76-17-.05-34.08,0-51.12,0Z" fill="#ffffff" id="svg_2" class="" fill-opacity="1"/><path d="M494.25,98.05h58.62c6.39,0,10.55-3.84,10.85-10.22a81.17,81.17,0,0,0-.1-9,9.71,9.71,0,0,0-9.81-9.13c-14.3,0-28.6,0-42.9,0a18.84,18.84,0,0,1-9.35-2.19c-5.7-3.16-9.55-7.81-10-14.45a69,69,0,0,1,.21-14.59c1.22-8.57,9.17-15.07,18.05-15.12,19.34-.1,38.67,0,58-.05,1.11,0,1.49.36,1.46,1.46,0,2.39-.08,4.79,0,7.17.05,1.32-.38,1.69-1.7,1.68q-27.12-.06-54.26,0a10.28,10.28,0,0,0-9,4.63c-2.35,3.48-2.29,12.82.17,16.22a10.26,10.26,0,0,0,8.86,4.39c14.1,0,28.2,0,42.3,0a18.42,18.42,0,0,1,9.73,2.38c6.26,3.73,9.66,9.19,9.78,16.54.07,3.93,0,7.87,0,11.81a18.8,18.8,0,0,1-18.57,18.76c-20.28.09-40.56,0-60.84,0-1.05,0-1.52-.22-1.49-1.4C494.31,104.1,494.25,101.21,494.25,98.05Z" fill="#ffffff" id="svg_3" class="" fill-opacity="1"/><path d="M124,132.53c-3.52,0-6.84,0-10.16,0-.28,0-.68-.46-.79-.79a4.19,4.19,0,0,1,0-1.33V47.9c0-2.18,0-2.18,2.18-2.18h43a19.07,19.07,0,0,1,14,5.64,15.26,15.26,0,0,1,4.6,11.15q.08,14.49,0,29c0,9-7.58,16.57-17,16.79-8.91.22-17.82.07-26.74.08-2.49,0-5,0-7.47,0-1.25,0-1.63.42-1.62,1.65,0,6.87,0,13.74,0,20.62Zm0-55.66c0,6.68,0,13.35,0,20,0,1,.09,1.7,1.41,1.7,10.55,0,21.11.08,31.66,0a8.91,8.91,0,0,0,8.64-8.65q.13-12.91,0-25.84a8.16,8.16,0,0,0-1.14-3.78c-2.05-3.57-5.46-4.77-9.35-4.79-9.81,0-19.62,0-29.43,0-1.37,0-1.79.45-1.78,1.82C124,63.83,124,70.35,124,76.87Z" fill="#ffffff" id="svg_4" class="" fill-opacity="1"/><path d="M218.24,82.76c-8.22,0-16.44,0-24.66,0-1.48,0-2,.4-2,1.94.11,2.83,0,5.67,0,8.51,0,3.63,2,5.72,5.73,5.74,6.38,0,12.75,0,19.13,0,6.92,0,13.85,0,20.77,0,1.25,0,1.65.37,1.6,1.61-.08,2.19,0,4.38,0,6.57,0,1-.36,1.29-1.32,1.28-14.34,0-28.69,0-43-.07-6.33,0-11.91-4.21-13.34-9.64a15.05,15.05,0,0,1-.45-3.84c0-10.56,0-21.12,0-31.68A17.16,17.16,0,0,1,196.36,46c2.63-.23,5.28-.23,7.91-.22,8.17,0,16.35-.13,24.5.25a17.12,17.12,0,0,1,15.49,13.22,16.82,16.82,0,0,1,.27,3.41c0,6.07,0,12.15.05,18.23,0,1.57-.54,1.91-2,1.9C234.48,82.73,226.36,82.76,218.24,82.76Zm-5.67-9.82c6.42,0,12.85,0,19.27,0,1.28,0,1.79-.31,1.72-1.66-.1-2.09,0-4.18,0-6.27a9,9,0,0,0-8.7-9.26q-12.17-.27-24.35,0A9.15,9.15,0,0,0,191.66,65c0,2.14.05,4.29,0,6.43,0,1.27.46,1.59,1.66,1.58C199.72,72.91,206.14,72.94,212.57,72.94Z" fill="#ffffff" id="svg_5" class="" fill-opacity="1"/><path d="M313.26,83.75c0,7.62,0,15.25,0,22.87,0,1.34-.33,1.83-1.74,1.77-2.54-.11-5.08-.1-7.62,0-1.34,0-1.68-.39-1.67-1.69,0-13.6,0-27.2,0-40.8,0-6-3.16-10-9.15-10.2-8.25-.33-16.53-.3-24.79,0-5.58.23-8.78,4.13-8.8,9.73,0,11.46,0,22.92,0,34.38,0,2.34,0,4.68,0,7,0,1-.25,1.54-1.42,1.51-2.79-.07-5.58-.06-8.37,0-1,0-1.26-.37-1.25-1.32,0-15,0-30,.05-45,.05-7.87,6.55-14.84,14.68-16a23,23,0,0,1,3.41-.3c9.57,0,19.13-.06,28.7,0a18.21,18.21,0,0,1,15.47,8.17,12.85,12.85,0,0,1,2.4,7.42c0,7.47,0,15,0,22.42Z" fill="#ffffff" id="svg_6" class="" fill-opacity="1"/><path d="M308.53,132.56c-1.74,0-3.48.05-5.22,0-.36,0-.69-.55-1-.85.34-.24.68-.7,1-.71,3.09-.05,6.18,0,9.26,0,2,0,2.73-.71,2.78-2.64.06-2.1-.73-3-2.73-3.06-2.39,0-4.78,0-7.17,0-2.77,0-3.8-1.25-3.77-4.34,0-2.73,1.22-4,3.84-4,3.09,0,6.18,0,9.26,0,.62,0,1.36,0,1.14.88a1.44,1.44,0,0,1-1.15.71c-2.88.07-5.77,0-8.66,0-1.77,0-2.65.86-2.67,2.49s.87,2.5,2.62,2.51c2.29,0,4.58,0,6.87,0,2.89,0,4.2,1.3,4.21,4.16,0,.5,0,1,0,1.49a3.35,3.35,0,0,1-3.51,3.44C311.92,132.58,310.23,132.56,308.53,132.56Z" fill="#ffffff" id="svg_7" class="" fill-opacity="1"/><path d="M380.5,128.14c0,1.79,0,3.58,0,5.38a2.9,2.9,0,0,1-2.81,3.22c-2.28.13-4.58.09-6.87,0-.3,0-.6-.45-.9-.69.33-.28.64-.77,1-.79,1.79-.08,3.59,0,5.38-.08a3.34,3.34,0,0,0,1.89-.63,2.29,2.29,0,0,0,.48-1.59c0-.14-.82-.4-1.27-.41-1.74-.05-3.49,0-5.23,0a3.22,3.22,0,0,1-3.4-3.37c0-1.54,0-3.08,0-4.63a3.19,3.19,0,0,1,3.29-3.47c2.49-.08,5,0,7.48,0,.82,0,1,.4,1,1.11C380.48,124.15,380.5,126.14,380.5,128.14Zm-1.69-1.28h0a21.78,21.78,0,0,0-.05-3.13,1.48,1.48,0,0,0-1-1c-1.69-.11-3.39-.08-5.08,0a1.87,1.87,0,0,0-2,2c0,1.35,0,2.69,0,4,0,1.57.66,2.24,2.28,2.3,1.39.05,2.79-.06,4.18,0s1.88-.52,1.75-1.85A23.79,23.79,0,0,1,378.81,126.86Z" fill="#ffffff" id="svg_8" class="" fill-opacity="1"/><path d="M454.94,132.56c-1.74,0-3.48,0-5.22,0a3.26,3.26,0,0,1-3.31-3.31c0-3,0-6.07,0-9.1a3.18,3.18,0,0,1,3.18-3.27c3.58-.06,7.16-.05,10.74,0,.37,0,.74.51,1.11.78-.4.26-.78.74-1.18.75-3.08.06-6.17,0-9.25,0-2.13,0-2.72.63-2.73,2.78,0,2.39,0,4.78,0,7.17,0,1.86.68,2.53,2.51,2.54,3.09,0,6.17,0,9.26,0,.6,0,1.4-.23,1.39.83s-.85.76-1.43.77C458.33,132.59,456.64,132.57,454.94,132.56Z" fill="#ffffff" id="svg_9" class="" fill-opacity="1"/><path d="M291.94,117.50505048036575 v15.53 c-2,0 -4,-0.08000000000000002 -5.95,0 c-5.19,0.25 -6,-1 -5.78,-5.75 c0,-0.79 0,-1.58 0,-2.38 a3.15,3.15 0 0 1 3.35,-3.37 c1.7400000000000002,0 3.48,-0.07 5.22,0 c1.11,0 1.56,-0.37000000000000005 1.48,-1.46 c0,-0.49000000000000005 0,-1 0,-1.49 C290.2,117.44505048036575 290.73,117.12505048036576 291.94,117.50505048036575 zm-1.6700000000000002,9.83 h0 c0,-1 0,-2 0,-3 c0,-0.8500000000000001 -0.29000000000000004,-1.27 -1.22,-1.24 c-1.6400000000000001,0 -3.2800000000000002,0 -4.92,0 a1.83,1.83 0 0 0 -2,2 c0,1.34 0,2.6900000000000004 0,4 c0,1.54 0.5900000000000001,2.2 2.12,2.3 s2.89,0 4.32,0.07 s1.87,-0.52 1.75,-1.84 C290.21,128.97505048036575 290.27,128.17505048036577 290.27,127.37505048036576 z" fill="#ffffff" id="svg_10" class="" fill-opacity="1"/><path d="M148.9,132.55c-4,0-7.91,0-11.83,0a3.08,3.08,0,0,1-2.89-2.94c-.13-3.22-.15-6.46,0-9.69a3.15,3.15,0,0,1,3.42-3c3.43,0,6.87,0,10.3,0,.4,0,.8.44,1.2.67-.4.3-.79.84-1.2.85-3,.08-6.06,0-9.1,0-2.14,0-2.82.7-2.84,2.88s0,4.58,0,6.86c0,2.05.73,2.74,2.81,2.75,3,0,6.07,0,9.1,0C149,130.91,149.34,131.32,148.9,132.55Z" fill="#ffffff" id="svg_11" class="" fill-opacity="1"/><path d="M389.46,127.74c-1.1,0-2.2,0-3.29,0s-1.76,0-1.73,1.37.34,2.06,1.74,2.06h5.38a2.92,2.92,0,0,1,1,0c.29.13.49.47.73.72-.22.2-.44.59-.66.59-2.64,0-5.29.12-7.92,0a2.14,2.14,0,0,1-2-2.38c0-1.89,0-3.79,0-5.68a3.07,3.07,0,0,1,3.21-3.34c1.74-.07,3.49-.07,5.23,0a3.19,3.19,0,0,1,3.31,3.44c0,3.78.5,3.15-3.09,3.22C390.75,127.75,390.1,127.74,389.46,127.74Zm-1.11-1.59c.85,0,1.69,0,2.53,0s1.69.41,1.77-.92c.07-1.14-.2-2.28-1.41-2.42a22,22,0,0,0-5.32,0c-1.21.14-1.5,1.3-1.43,2.43.07,1.31,1.09.84,1.79.9S387.66,126.15,388.35,126.15Z" fill="#ffffff" id="svg_12" class="" fill-opacity="1"/><path d="M542,127.74c-1.19,0-2.39,0-3.58,0-.91,0-1.56.1-1.53,1.26s.1,2.09,1.46,2.14c1.89.06,3.78,0,5.68,0a2.94,2.94,0,0,1,1,0c.29.13.49.47.73.71-.22.21-.44.6-.66.6-2.64,0-5.28.12-7.91,0a2.11,2.11,0,0,1-2-2.36c0-1.94,0-3.88,0-5.82a3,3,0,0,1,3-3.2,53.69,53.69,0,0,1,5.53,0,3.14,3.14,0,0,1,3.2,3.39c0,3.92.56,3.17-3.16,3.26C543.19,127.75,542.59,127.74,542,127.74Zm-1-1.59h3a.33.33,0,0,0,.14,0c.33-.15.81-.23.94-.49a2.06,2.06,0,0,0-1.47-2.9,24.26,24.26,0,0,0-5,0c-1.26.15-1.68,1.25-1.59,2.48s1.12.82,1.81.89S540.21,126.15,541,126.15Z" fill="#ffffff" id="svg_13" class="" fill-opacity="1"/><path d="M273.08,127.74c-1.14,0-2.29,0-3.43,0-.84,0-1.6,0-1.58,1.2s.06,2.17,1.53,2.21c1.74.05,3.49,0,5.23,0a5,5,0,0,1,1.34,0c.3.08.54.41.81.63-.24.24-.48.68-.73.68-2.59,0-5.19.12-7.77,0a2.17,2.17,0,0,1-2.13-2.42c0-1.89,0-3.78,0-5.67a3.09,3.09,0,0,1,3.22-3.33c1.74-.07,3.49-.06,5.23,0a3,3,0,0,1,3.2,3.33c.07,3.33.07,3.33-3.27,3.33Zm-1-1.59c1,0,2.08,0,3.12,0a1.38,1.38,0,0,0,1.05-.53c.47-1-.24-2.66-1.31-2.77a24.49,24.49,0,0,0-5.48,0c-1.2.16-1.45,1.35-1.34,2.49s1.07.76,1.72.82S271.31,126.15,272.06,126.15Z" fill="#ffffff" id="svg_14" class="" fill-opacity="1"/><path d="M233.39,132.56c-2.73,0-5.41,0-8.09,0a2.23,2.23,0,0,1-2.32-2.37q-.09-3,0-6a3,3,0,0,1,3.1-3.11q2.69-.12,5.37,0a3.09,3.09,0,0,1,3.19,3.34c0,3.31,0,3.31-3.28,3.31-1.69,0-3.38,0-5.07,0-.94,0-1.63,0-1.59,1.31s.18,2.11,1.62,2.12c2,0,4.08,0,6.12,0C233.33,131.14,233.76,131.41,233.39,132.56Zm-8.51-6.41h6.45c1.53,0,2.11-.78,1.37-2.13a3.09,3.09,0,0,0-1.92-1.29,16.08,16.08,0,0,0-3.26-.06C225.08,122.68,224.5,123.38,224.88,126.15Z" fill="#ffffff" id="svg_15" class="" fill-opacity="1"/><path d="M514.11,126.93c0,1.5,0,3,0,4.48,0,.81-.22,1.18-1.09,1.17-2.54,0-5.08,0-7.61,0a3.1,3.1,0,0,1-3.09-3.16c0-1.64,0-3.28,0-4.92a3.11,3.11,0,0,1,3.18-3.37c2.53-.08,5.07,0,7.61,0,.82,0,1,.38,1,1.1C514.09,123.75,514.11,125.34,514.11,126.93Zm-1.86-4.24c-2.27,0-4.3-.07-6.33,0a1.85,1.85,0,0,0-1.79,2c0,1.39,0,2.79,0,4.18a1.93,1.93,0,0,0,2.05,2.09c1.69.07,3.39.1,5.08,0a1.35,1.35,0,0,0,.94-.94C512.29,127.69,512.25,125.31,512.25,122.69Z" fill="#ffffff" id="svg_16" class="" fill-opacity="1"/><path d="M366.37,132.55c-3.14,0-6,.07-8.9,0a3,3,0,0,1-2.82-3.1c0-1.69,0-3.38,0-5.08a3,3,0,0,1,3-3.24c2.58-.1,5.18-.06,7.76,0,.33,0,.93.51.93.79C366.39,125.37,366.37,128.84,366.37,132.55Zm-1.82-5.68h0c0-1,0-2.09,0-3.13,0-.75-.26-1.09-1-1.07-1.69,0-3.39,0-5.08,0a1.82,1.82,0,0,0-2,2c0,1.39,0,2.78,0,4.18a2,2,0,0,0,2.09,2.2c1.49.07,3,0,4.47.07,1.27.07,1.68-.48,1.57-1.68C364.49,128.57,364.55,127.72,364.55,126.87Z" fill="#ffffff" id="svg_17" class="" fill-opacity="1"/><path d="M201.7,126.83c0,1.54,0,3.08,0,4.62,0,.84-.29,1.14-1.13,1.13-2.48,0-5,0-7.45,0a3.16,3.16,0,0,1-3.2-3.36c0-1.59,0-3.18,0-4.77a3.15,3.15,0,0,1,3.22-3.34c2.48-.07,5,0,7.45,0,.86,0,1.12.36,1.1,1.16C201.67,123.75,201.7,125.29,201.7,126.83Zm-1.78-4.14c-2.29,0-4.37-.07-6.44,0a1.74,1.74,0,0,0-1.68,1.92c0,1.39,0,2.78,0,4.17a2,2,0,0,0,2.07,2.2c1.68.07,3.37.08,5.06,0,.34,0,1-.5,1-.79C200,127.77,199.92,125.31,199.92,122.69Z" fill="#ffffff" id="svg_18" class="" fill-opacity="1"/><path d="M157.63,132.55c-1,0-2.09,0-3.13,0a3,3,0,0,1-2.93-3c-.06-1.78,0-3.57,0-5.36a3,3,0,0,1,2.94-3.11c2.13-.11,4.27-.1,6.4,0a3.09,3.09,0,0,1,3.08,3.19c.06,1.68.06,3.37,0,5.06a3.18,3.18,0,0,1-3.38,3.21c-1,0-2,0-3,0Zm.16-9.88c-.74,0-1.49,0-2.23,0-1.55,0-2.23.74-2.26,2.31,0,1.24,0,2.48,0,3.72a2,2,0,0,0,2,2.29c.94.09,1.89.07,2.83.08,3.8,0,4-.22,4-4C162.13,122.66,162.13,122.66,157.79,122.67Z" fill="#ffffff" id="svg_19" class="" fill-opacity="1"/><path d="M470,132.55c-1.09,0-2.19.06-3.28,0a3.1,3.1,0,0,1-3-3.12c0-1.69,0-3.38,0-5.07a3,3,0,0,1,3-3.25,62.22,62.22,0,0,1,6.55,0,3,3,0,0,1,2.86,3.19c0,1.68,0,3.37,0,5.06a3.07,3.07,0,0,1-3.17,3.2c-1,0-2,0-3,0Zm0-1.52c.79,0,1.59,0,2.38,0a2,2,0,0,0,2.06-2.1c.05-1.39.07-2.78,0-4.17a2,2,0,0,0-2.22-2.08c-1.44,0-2.88,0-4.32,0a2.07,2.07,0,0,0-2.36,2.24c0,.55,0,1.1,0,1.64C465.52,131,465.61,131.08,470,131Z" fill="#ffffff" id="svg_20" class="" fill-opacity="1"/><path d="M419.79,132.56c-.94,0-1.89,0-2.83,0a3,3,0,0,1-3.25-3.14q-.07-2.61,0-5.22a3,3,0,0,1,3.12-3.12c2-.07,4-.06,6,0a3.09,3.09,0,0,1,3.27,3.29c0,1.69.05,3.38,0,5.07a3.08,3.08,0,0,1-3.13,3.11C421.89,132.59,420.84,132.56,419.79,132.56Zm.18-9.89c-.74,0-1.49,0-2.23,0-1.58.06-2.24.72-2.28,2.29,0,.49,0,1,0,1.48,0,4.61,0,4.64,4.62,4.64,4,0,4.22-.18,4.22-4.15C424.3,122.66,424.3,122.66,420,122.67Z" fill="#ffffff" id="svg_21" class="" fill-opacity="1"/><path d="M335.13,132.56c-1,0-2,0-3,0a3,3,0,0,1-3-3c-.05-1.79,0-3.58,0-5.37a2.9,2.9,0,0,1,2.82-3.06,65.24,65.24,0,0,1,6.56,0,2.94,2.94,0,0,1,2.89,3.16q0,2.53,0,5.07a3,3,0,0,1-3.27,3.23c-1,0-2,0-3,0Zm.2-9.89c-.64,0-1.29,0-1.94,0-1.88,0-2.51.65-2.54,2.48,0,.4,0,.8,0,1.2,0,4.73,0,4.73,4.69,4.73,3.93,0,4.15-.22,4.15-4.12C339.68,122.73,339.61,122.66,335.33,122.67Z" fill="#ffffff" id="svg_22" class="" fill-opacity="1"/><path d="M252.21,132.12a7.63,7.63,0,0,1,1.13-2c2.34-2.15,4.77-4.22,7.18-6.31.29-.25.62-.47,1.28-1a14.89,14.89,0,0,0-1.53-.22c-2.24,0-4.48,0-6.72,0-.38,0-.74-.51-1.11-.79.33-.25.66-.72,1-.72,3.38-.06,6.76,0,10.19,0a2.38,2.38,0,0,1-.73,3.06c-2.14,1.78-4.19,3.68-6.29,5.5a10.71,10.71,0,0,1-1.25.81l.31.67h3.14c1.4,0,2.79,0,4.18.05.3,0,.58.48.87.74-.27.22-.52.64-.79.64-3.47,0-6.94,0-10.42,0Z" fill="#ffffff" id="svg_23" class="" fill-opacity="1"/><path d="M565.33,132.56c-1.24,0-2.49.05-3.73,0-.33,0-.63-.41-.94-.64.31-.23.61-.65.92-.66q3.06-.09,6.12,0c1.36,0,2-.47,2-1.93s-.63-1.93-2-1.87c-1.59.06-3.19,0-4.78,0-2.16-.07-2.92-1.07-2.86-3.6,0-1.77,1-2.7,3-2.72s4,0,6,0c.45,0,.89.44,1.33.68a4.54,4.54,0,0,1-1.41.64c-1.69.08-3.39,0-5.08,0-1.21,0-2,.34-2,1.78s.82,1.74,2,1.73c1.54,0,3.09,0,4.63,0,2.34.07,3,.94,3,3.61,0,2.07-.91,2.94-3,3Z" fill="#ffffff" id="svg_24" class="" fill-opacity="1"/><path d="M522.71,132.37c-1.34.46-1.85.1-1.81-1.25.07-2.19,0-4.38,0-6.57a3.24,3.24,0,0,1,3.44-3.48c1.74,0,3.49,0,5.23,0s3.19,1.07,3.26,2.67c.13,2.87,0,5.75,0,8.72h-1.85v-7.21c0-2-.55-2.57-2.56-2.59-1.14,0-2.29,0-3.43,0-1.6,0-2.25.7-2.28,2.3,0,2,0,4,0,6C522.77,131.43,522.73,131.92,522.71,132.37Z" fill="#ffffff" id="svg_25" class="" fill-opacity="1"/><path d="M480.13,132.48h-1.55c0-3-.1-6,0-9a2.8,2.8,0,0,1,3-2.42c1.89-.07,3.78-.08,5.67,0a3.15,3.15,0,0,1,3.18,3.25c0,2.33.05,4.67,0,7a1.58,1.58,0,0,1-.85,1.17c-1,.24-1-.53-.95-1.21,0-2.09,0-4.18,0-6.27,0-1.68-.67-2.33-2.35-2.37-1.24,0-2.49,0-3.73,0-1.53,0-2.16.67-2.19,2.19,0,2.44,0,4.87-.06,7.31C480.27,132.21,480.24,132.25,480.13,132.48Z" fill="#ffffff" id="svg_26" class="" fill-opacity="1"/><path d="M208.75,132.35c0-2.9,0-5.73,0-8.56a2.51,2.51,0,0,1,2.33-2.53,41.29,41.29,0,0,1,7.12,0c1.55.13,2.34,1.37,2.37,3,0,2.34,0,4.68,0,7,0,1.13-.34,1.61-1.72,1.13v-6.58c0-2.58-.54-3.11-3.16-3.11h-2.54c-2.11,0-2.71.63-2.73,2.79,0,1.94,0,3.88,0,5.82C210.5,132.45,210,132.8,208.75,132.35Z" fill="#ffffff" id="svg_27" class="" fill-opacity="1"/><path d="M178.13,127.78c0,1.25.06,2.5,0,3.73,0,.37-.55.7-.85,1-.28-.36-.81-.71-.82-1.08-.08-2.08,0-4.18,0-6.27,0-1.89-.65-2.51-2.51-2.54h-3.28c-1.94,0-2.55.64-2.58,2.63s0,4,0,6c0,.65.05,1.48-.93,1.24a1.58,1.58,0,0,1-.77-1.24c-.08-2.33-.06-4.67,0-7a3,3,0,0,1,3.06-3.16c1.89-.08,3.79-.08,5.68,0a3,3,0,0,1,3.11,3.27C178.15,125.49,178.13,126.64,178.13,127.78Z" fill="#ffffff" id="svg_28" class="" fill-opacity="1"/><path d="M404,132.37c0-4.32,0-8.55,0-12.77a3,3,0,0,1,2.87-2.72c1.34-.07,2.68,0,4.08,0,.31.89.16,1.41-.82,1.44a12.68,12.68,0,0,0-2.23.06,3.9,3.9,0,0,0-1.77.91,1.6,1.6,0,0,0-.25,1.36c.06.23.72.39,1.12.41,1.09.06,2.19,0,3.28.06.31,0,.6.44.9.67-.3.3-.59.81-.91.84a20.07,20.07,0,0,1-3.29,0c-1,0-1.33.36-1.31,1.31q0,3.64,0,7.31C405.66,132.59,405.61,132.6,404,132.37Z" fill="#ffffff" id="svg_29" class="" fill-opacity="1"/><path d="M180.36,124.71c0-1.59-.05-3.19,0-4.78,0-.38.54-.72.83-1.08.31.33.86.65.88,1,0,1,.51,1.27,1.42,1.22a21.79,21.79,0,0,1,3.13,0c.34,0,.64.5,1,.77-.33.26-.64.72-1,.75a25.64,25.64,0,0,1-3.28,0c-.84,0-1.16.3-1.14,1.13,0,1.7,0,3.39,0,5.08a2,2,0,0,0,2.09,2.21c.79.05,1.6,0,2.38.07.33.05.61.45.92.7-.3.24-.58.67-.89.69a26.17,26.17,0,0,1-3.43,0,3.15,3.15,0,0,1-2.92-3.2C180.34,127.8,180.36,126.25,180.36,124.71Z" fill="#ffffff" id="svg_30" class="" fill-opacity="1"/><path d="M326.48,122.66c-1.33,0-2.62,0-3.9,0-1,0-1.35.3-1.32,1.29.06,1.59,0,3.18,0,4.78s.67,2.27,2.25,2.37c.79,0,1.6,0,2.38.08.28,0,.5.46.75.7-.25.23-.49.65-.75.66a27.31,27.31,0,0,1-3.73,0,2.83,2.83,0,0,1-2.61-2.79q-.09-4.86,0-9.72c0-.38.53-.76.82-1.14.29.36.82.7.84,1.07,0,1,.53,1.15,1.34,1.13s1.9,0,2.84,0S326.93,121.35,326.48,122.66Z" fill="#ffffff" id="svg_31" class="" fill-opacity="1"/><path d="M492.67,124.86c0-1.59-.05-3.19,0-4.78a1.54,1.54,0,0,1,.74-1.16c.8-.24,1,.39,1,1.07,0,.88.46,1.1,1.22,1.08a25.78,25.78,0,0,1,3.29,0c.33,0,.62.52.92.81-.29.24-.57.67-.88.7a17.56,17.56,0,0,1-3,0c-1.14-.09-1.64.28-1.57,1.5.08,1.48,0,3,0,4.47,0,1.74.69,2.4,2.47,2.48a16.11,16.11,0,0,1,2.09.06c.31.06.56.51.84.78-.28.21-.54.58-.83.6a25.16,25.16,0,0,1-3.58,0,3,3,0,0,1-2.71-3c-.05-1.54,0-3.09,0-4.63Z" fill="#ffffff" id="svg_32" class="" fill-opacity="1"/><path d="M428.23,127.6c0-1.09,0-2.19,0-3.28a3.06,3.06,0,0,1,3-3.23,44.31,44.31,0,0,1,4.61,0c.3,0,.57.46.86.71-.31.28-.59.76-.92.79a29.63,29.63,0,0,1-3,.05c-2.22,0-2.74.52-2.75,2.69v6c0,.68,0,1.45-1,1.2a1.59,1.59,0,0,1-.82-1.18C428.15,130.09,428.22,128.84,428.23,127.6Z" fill="#ffffff" id="svg_33" class="" fill-opacity="1"/><path d="M345.51,132.33c-1.26.47-1.74.15-1.72-1.05,0-2.33,0-4.67,0-7a3,3,0,0,1,3.16-3.19c1.44-.06,2.89-.06,4.33,0,.35,0,.68.46,1,.71-.36.28-.71.76-1.09.8-1.14.1-2.29,0-3.43,0a2,2,0,0,0-2.27,2.31C345.49,127.4,345.51,129.83,345.51,132.33Z" fill="#ffffff" id="svg_34" class="" fill-opacity="1"/><path d="M236.85,132.35c0-2.9,0-5.74,0-8.57a2.91,2.91,0,0,1,2.91-2.69,44.69,44.69,0,0,1,4.63,0c.31,0,.6.43.9.67-.3.29-.58.8-.9.83-1.19.11-2.39,0-3.59.06-1.51,0-2.18.68-2.22,2.2,0,2.14,0,4.29,0,6.43C238.61,132.49,238.09,132.78,236.85,132.35Z" fill="#ffffff" id="svg_35" class="" fill-opacity="1"/><path d="M549.25,132.35c0-2.93-.06-5.82,0-8.69a3,3,0,0,1,3-2.58c1.49-.07,3,0,4.48,0,.32,0,.63.42.94.64-.3.3-.57.83-.9.86-1.08.11-2.18,0-3.28.05-1.89,0-2.53.63-2.55,2.49,0,2-.05,4.08,0,6.12C551,132.45,550.54,132.8,549.25,132.35Z" fill="#ffffff" id="svg_36" class="" fill-opacity="1"/><path d="M518.43,132.49h-1.76v-6.73c0-1.1,0-2.19,0-3.29,0-.58-.28-1.38.8-1.4s.92.83.93,1.48c0,2.44,0,4.88,0,7.32Z" fill="#ffffff" id="svg_37" class="" fill-opacity="1"/><path d="M206.11,121.23v11.11c-1.06.44-1.66.28-1.64-1.06,0-3,0-6,0-9C204.45,121.08,205,120.88,206.11,121.23Z" fill="#ffffff" id="svg_38" class="" fill-opacity="1"/><path d="M249.84,132.36c-1.18.39-1.71.18-1.69-1,0-3,0-6.07,0-9.1,0-.41.54-.8.84-1.2.26.36.76.73.77,1.1C249.87,125.55,249.84,128.93,249.84,132.36Z" fill="#ffffff" id="svg_39" class="" fill-opacity="1"/><path d="M518.59,117.34 a5.75,5.75 0 0 1 -1.15,0.91 c-0.1,0 -0.49000000000000005,-0.5 -0.7500000000000001,-0.78 l1.3800000000000001,-0.81 z" fill="#ffffff" id="svg_40" class="" fill-opacity="1"/><path d="M249.15,116.46 c0.32000000000000006,0.5900000000000001 0.6600000000000001,0.92 0.6200000000000001,1.2 a1,1 0 0 1 -0.7400000000000001,0.5900000000000001 a1.15,1.15 0 0 1 -0.78,-0.7300000000000001 C248.21,117.29 248.68,117 249.15,116.46 z" fill="#ffffff" id="svg_41" class="" fill-opacity="1"/><path d="M205.47,118.68l-.95-1.09c.28-.25.54-.63.86-.69s.74.35.74.56S205.81,118.09,205.47,118.68Z" fill="#ffffff" id="svg_42" class="" fill-opacity="1"/><path d="M63.84,108.29H39.13a18.8,18.8,0,0,1-19-15.65A19.78,19.78,0,0,1,19.8,89q0-23.15,0-46.31A18.72,18.72,0,0,1,38.57,23.55c13-.11,26.07-.13,39.1-.14,4.24,0,8.47,0,12.71.2A18.37,18.37,0,0,1,107.43,38.4a41.36,41.36,0,0,1,.49,7.39c0,14.51.09,29,0,43.55a18.88,18.88,0,0,1-19,19C80.56,108.24,72.2,108.29,63.84,108.29Zm-.05-10c7.56,0,15.12,0,22.68,0a9.82,9.82,0,0,0,9.69-7.46,21,21,0,0,0,.54-4.61c.14-5.16.19-10.32.26-15.47q.18-13.5.32-27a9.47,9.47,0,0,0-7.51-9.68,33.81,33.81,0,0,0-7.12-.63q-18.78-.07-37.56,0a39.52,39.52,0,0,0-6.44.42,9.74,9.74,0,0,0-8.21,9.87c0,4.12.15,8.23.21,12.35.09,6.11.16,12.23.25,18.35C31,79,31,83.61,31.15,88.2c.25,6.08,4.5,10.07,10.56,10.07Q52.75,98.29,63.79,98.27Z" fill="#ffffff" id="svg_43" class="" fill-opacity="1"/></g></svg>